<svg width="16" height="16" viewBox="0 0 16 16" fill="none" xmlns="http://www.w3.org/2000/svg">
<path d="M1.4233 6.07249C1.14928 5.33261 0.95086 4.57699 1.0107 3.77415C1.0485 3.27985 1.23432 2.85796 1.59653 2.51163C1.99022 2.14012 2.36188 1.74972 2.74928 1.37191C3.25321 0.874458 3.88628 0.877606 4.39021 1.37191C4.70202 1.6773 5.01068 1.989 5.31934 2.30069C5.61855 2.59979 5.92091 2.89889 6.22012 3.20114C6.7461 3.73322 6.74925 4.35346 6.22327 4.88239C5.84532 5.2602 5.47052 5.64116 5.08627 6.01267C4.98548 6.11027 4.97603 6.19213 5.02958 6.31492C5.28154 6.91941 5.6469 7.45779 6.05634 7.96154C6.88153 8.97533 7.81381 9.87577 8.92562 10.5716C9.16499 10.7195 9.4264 10.8297 9.67522 10.9651C9.80435 11.0344 9.88939 11.0124 9.99333 10.9053C10.3681 10.518 10.7524 10.1371 11.1366 9.75613C11.6406 9.25868 12.2705 9.25554 12.7744 9.75613C13.3917 10.3669 14.0059 10.9809 14.6169 11.598C15.1303 12.1143 15.1272 12.7471 14.6106 13.2666C14.261 13.6192 13.8925 13.953 13.565 14.3213C13.0862 14.8566 12.4815 15.0329 11.7949 14.9951C10.7933 14.9416 9.87049 14.6078 8.97916 14.1765C7.00122 13.2162 5.31304 11.8845 3.89887 10.2032C2.85321 8.95644 1.99022 7.60262 1.4233 6.07249Z" stroke="white"/>
</svg>
