<svg width="17" height="12" viewBox="0 0 17 12" fill="none" xmlns="http://www.w3.org/2000/svg">
<path d="M14.9839 0H1.44384C0.648703 0 0 0.607497 0 1.3536V10.3776C0 11.1212 0.645815 11.7312 1.44384 11.7312H14.9839C15.777 11.7312 16.4277 11.1258 16.4277 10.3776V1.3536C16.4277 0.610024 15.7819 0 14.9839 0ZM14.7845 0.902402L8.24448 7.03372L1.64788 0.902402H14.7845ZM0.962563 10.1908V1.53616L5.59823 5.84483L0.962563 10.1908ZM1.64319 10.8288L6.28178 6.48015L7.90713 7.99083C8.09528 8.16572 8.3989 8.16515 8.58628 7.98945L10.1711 6.50371L14.7845 10.8288H1.64319ZM15.4652 10.1907L10.8517 5.86562L15.4652 1.54046V10.1907Z" fill="white"/>
</svg>
