<svg width="9" height="18" viewBox="0 0 9 18" fill="none" xmlns="http://www.w3.org/2000/svg">
<path fill-rule="evenodd" clip-rule="evenodd" d="M1.79936 9.08301V17.0449C1.79936 17.1408 1.90219 17.2367 2.00501 17.2367H5.19245C5.29527 17.2367 5.39809 17.1408 5.39809 17.0449V8.93912H7.71156C7.81438 8.93912 7.9172 8.8432 7.9172 8.74727L8.12285 6.30115C8.12285 6.15727 8.02003 6.06134 7.9172 6.06134H5.39809V4.38263C5.39809 3.99893 5.75797 3.66319 6.16925 3.66319H7.9172C8.02003 3.66319 8.12285 3.56726 8.12285 3.47133V0.977253C8.22567 0.881327 8.12285 0.7854 7.96862 0.7854H4.98681C3.23886 0.7854 1.79936 2.12837 1.79936 3.75911V6.1093H0.205642C0.102821 6.1093 0 6.20523 0 6.30115V8.74727C0 8.8432 0.102821 8.93912 0.205642 8.93912H1.79936V9.08301Z" fill="white"/>
</svg>
