<svg width="19" height="18" viewBox="0 0 19 18" fill="none" xmlns="http://www.w3.org/2000/svg">
<path d="M18.2816 5.12127C18.2408 4.19572 18.0911 3.55942 17.8767 3.00805C17.6556 2.42279 17.3153 1.89881 16.8695 1.46322C16.4339 1.02085 15.9064 0.677111 15.3279 0.459383C14.7734 0.244978 14.1404 0.095306 13.2149 0.0544985C12.2824 0.0102351 11.9864 0 9.62141 0C7.25644 0 6.96042 0.0102351 6.03142 0.0510425C5.10588 0.09185 4.46957 0.241654 3.91834 0.455927C3.33295 0.677111 2.80896 1.01739 2.37338 1.46322C1.93101 1.89881 1.5874 2.42625 1.36954 3.00473C1.15513 3.55942 1.00546 4.19227 0.964655 5.11781C0.920391 6.05027 0.910156 6.34629 0.910156 8.71126C0.910156 11.0762 0.920391 11.3722 0.961199 12.3012C1.00201 13.2268 1.15181 13.8631 1.36622 14.4145C1.5874 14.9997 1.93101 15.5237 2.37338 15.9593C2.80896 16.4017 3.3364 16.7454 3.91489 16.9631C4.46957 17.1775 5.10242 17.3272 6.0281 17.368C6.95697 17.409 7.25312 17.4191 9.61809 17.4191C11.9831 17.4191 12.2791 17.409 13.2081 17.368C14.1336 17.3272 14.7699 17.1775 15.3212 16.9631C16.4918 16.5105 17.4174 15.585 17.87 14.4145C18.0842 13.8598 18.234 13.2268 18.2748 12.3012C18.3157 11.3722 18.3259 11.0762 18.3259 8.71126C18.3259 6.34629 18.3224 6.05027 18.2816 5.12127ZM16.713 12.2332C16.6755 13.0839 16.5326 13.5433 16.4135 13.8495C16.1208 14.6084 15.5186 15.2107 14.7597 15.5034C14.4534 15.6225 13.9907 15.7654 13.1433 15.8027C12.2246 15.8437 11.949 15.8538 9.62487 15.8538C7.30071 15.8538 7.0217 15.8437 6.10626 15.8027C5.25555 15.7654 4.79617 15.6225 4.48991 15.5034C4.11228 15.3638 3.76854 15.1426 3.48953 14.8534C3.20029 14.5709 2.97911 14.2306 2.83954 13.853C2.72044 13.5467 2.57755 13.0839 2.54019 12.2366C2.49925 11.3179 2.48915 11.0422 2.48915 8.71804C2.48915 6.39387 2.49925 6.11487 2.54019 5.19956C2.57755 4.34885 2.72044 3.88947 2.83954 3.58321C2.97911 3.20544 3.20029 2.86184 3.49299 2.5827C3.77532 2.29346 4.1156 2.07227 4.49337 1.93284C4.79962 1.81374 5.26246 1.67085 6.10971 1.63336C7.02848 1.59255 7.30416 1.58232 9.62819 1.58232C11.9558 1.58232 12.2314 1.59255 13.1468 1.63336C13.9975 1.67085 14.4569 1.81374 14.7631 1.93284C15.1408 2.07227 15.4845 2.29346 15.7635 2.5827C16.0528 2.86516 16.274 3.20544 16.4135 3.58321C16.5326 3.88947 16.6755 4.35217 16.713 5.19956C16.7538 6.11832 16.764 6.39387 16.764 8.71804C16.764 11.0422 16.7538 11.3144 16.713 12.2332Z" fill="white"/>
<path d="M9.61926 4.23755C7.14888 4.23755 5.14453 6.24177 5.14453 8.71228C5.14453 11.1828 7.14888 13.187 9.61926 13.187C12.0898 13.187 14.094 11.1828 14.094 8.71228C14.094 6.24177 12.0898 4.23755 9.61926 4.23755ZM9.61926 11.6149C8.0166 11.6149 6.71661 10.3151 6.71661 8.71228C6.71661 7.10949 8.0166 5.80963 9.61926 5.80963C11.222 5.80963 12.5219 7.10949 12.5219 8.71228C12.5219 10.3151 11.222 11.6149 9.61926 11.6149Z" fill="white"/>
<path d="M15.3199 4.06125C15.3199 4.63813 14.8521 5.10589 14.2751 5.10589C13.6982 5.10589 13.2305 4.63813 13.2305 4.06125C13.2305 3.48423 13.6982 3.0166 14.2751 3.0166C14.8521 3.0166 15.3199 3.48423 15.3199 4.06125Z" fill="white"/>
</svg>
