<svg width="1051" height="136" viewBox="0 0 1051 136" fill="none" xmlns="http://www.w3.org/2000/svg">
<rect x="945" y="11" width="1" height="50" fill="#D9D9D9"/>
<path d="M945.5 104L956.325 85.25H934.675L945.5 104Z" fill="#C48F36"/>
<path d="M131.5 94L142.325 75.25H120.675L131.5 94Z" fill="#C48F36"/>
<rect y="60" width="263" height="16" fill="#C48F36"/>
<rect x="131" width="1" height="50" fill="#D9D9D9"/>
<rect width="1" height="50" transform="matrix(1 0 0 -1 394 136)" fill="#D9D9D9"/>
<path d="M394.5 42L405.325 60.75H383.675L394.5 42Z" fill="#303030"/>
<rect width="263" height="16" transform="matrix(1 0 0 -1 263 76)" fill="#303030"/>
<path d="M657.5 94L668.325 75.25H646.675L657.5 94Z" fill="#C48F36"/>
<rect x="526" y="60" width="263" height="16" fill="#C48F36"/>
<rect x="657" width="1" height="50" fill="#D9D9D9"/>
<path d="M920.5 42L931.325 60.75H909.675L920.5 42Z" fill="#303030"/>
<rect width="262" height="16" transform="matrix(1 0 0 -1 789 76)" fill="#303030"/>
<rect width="1" height="50" transform="matrix(1 0 0 -1 920 136)" fill="#D9D9D9"/>
</svg>
