<svg width="118" height="80" viewBox="0 0 118 80" fill="none" xmlns="http://www.w3.org/2000/svg">
<g clip-path="url(#clip0_6_221)">
<path d="M44.9115 14.4103C44.9115 9.82895 44.9194 5.24757 44.9011 0.666195C44.9011 0.170098 45.011 -0.00268555 45.5425 -0.00268555C54.6817 0.0147673 63.8208 0.01564 72.96 -6.76177e-05C73.4928 -6.76177e-05 73.6014 0.172716 73.6001 0.668813C73.587 9.78619 73.587 18.9053 73.6001 28.0262C73.6001 28.5498 73.4875 28.7291 72.9247 28.7278C63.8082 28.7095 54.6913 28.7095 45.5739 28.7278C45.0123 28.7278 44.8971 28.5537 44.8984 28.0275C44.9207 23.4841 44.9115 18.9472 44.9115 14.4103ZM59.2473 10.4586C59.3939 10.7583 59.4934 10.9481 59.5824 11.1431L63.47 19.6344C63.5237 19.7535 63.5695 19.8766 63.6324 19.9904C63.7711 20.2431 64.6507 20.463 64.9191 20.2627C65.2673 20.0009 64.8994 19.7561 64.8026 19.5454C63.0695 15.7442 61.3242 11.9482 59.5667 8.1574C59.4764 7.95975 59.3704 7.76471 59.2303 7.50292C57.3781 11.5463 55.5744 15.4876 53.7706 19.4145C53.3478 20.3399 53.3478 20.3151 54.3439 20.302C54.7366 20.302 54.8571 20.086 54.9906 19.7928C56.3872 16.7167 57.7904 13.6511 59.2473 10.4586Z" fill="white"/>
<path d="M40.9055 53.8875C40.9055 51.3154 40.933 48.7433 40.8872 46.1725C40.8754 45.4826 41.0901 45.3413 41.7288 45.3648C43.9043 45.4486 46.0851 45.2745 48.2606 45.4774C54.1287 46.0259 56.312 50.5536 55.8316 54.9805C55.4887 58.1377 53.9611 60.5109 50.9191 61.7347C49.7802 62.1815 48.5663 62.4063 47.343 62.3971C45.4254 62.4049 43.5077 62.3827 41.5901 62.4154C41.0534 62.4246 40.8872 62.2845 40.8924 61.7321C40.9225 59.1181 40.9055 56.5028 40.9055 53.8875ZM42.2001 53.8613C42.2001 56.152 42.2092 58.4427 42.1909 60.7321C42.1909 61.1797 42.3022 61.3407 42.7721 61.3303C44.2119 61.3015 45.6518 61.3421 47.0917 61.3133C50.9714 61.236 53.8211 58.9218 54.3878 55.2226C55.0921 50.6203 52.3917 47.2864 48.4896 46.6463C46.6047 46.3361 44.7002 46.5665 42.8074 46.4853C42.3035 46.463 42.1844 46.6437 42.1896 47.1215C42.2118 49.3676 42.2001 51.6151 42.2001 53.8613Z" fill="white"/>
<path d="M20.6395 53.8912C20.6395 51.2732 20.6499 48.6553 20.6303 46.0374C20.6303 45.5504 20.7285 45.3476 21.273 45.3659C23.5166 45.4444 25.7654 45.2677 28.0076 45.4798C33.8849 46.0348 36.1389 50.6174 35.5289 55.1399C34.915 59.6833 31.8939 62.2738 27.2824 62.3877C25.2549 62.4374 23.2247 62.3877 21.1958 62.4125C20.718 62.4191 20.6224 62.245 20.6251 61.8104C20.6486 59.165 20.6395 56.5314 20.6395 53.8912ZM25.0035 46.4942C24.2182 46.4942 23.4328 46.5309 22.6474 46.4811C22.0715 46.4458 21.9131 46.6225 21.9157 47.205C21.9419 51.4342 21.9301 55.6635 21.9301 59.8941C21.9301 61.3195 21.9301 61.3339 23.37 61.3156C25.0022 61.2934 26.6424 61.4583 28.2655 61.1612C32.0418 60.4661 34.3574 57.4961 34.2043 53.5757C34.0734 50.1083 32.0288 47.5663 28.7066 46.7337C27.4906 46.4261 26.2497 46.5047 25.0035 46.4942Z" fill="white"/>
<path d="M68.084 53.8887C70.4598 56.398 71.897 59.5173 73.8984 62.2779C72.6889 62.5802 72.4874 62.4965 71.9114 61.5985C70.6758 59.6757 69.5553 57.6795 68.2005 55.8312C67.406 54.7474 66.3823 54.1832 65.0184 54.2526C64.3871 54.286 63.7544 54.286 63.123 54.2526C62.6963 54.2304 62.5706 54.3678 62.5746 54.7971C62.5942 57.1297 62.5628 59.4623 62.5981 61.7949C62.606 62.3538 62.3913 62.4114 61.924 62.4219C61.4188 62.4323 61.2695 62.291 61.2695 61.7674C61.2905 56.5132 61.2905 51.2599 61.2695 46.0074C61.2695 45.4747 61.4305 45.3464 61.9319 45.3674C63.6505 45.4354 65.3744 45.2679 67.0905 45.4983C70.0763 45.8909 71.753 48.3047 70.9546 51.0483C70.6299 52.1622 69.8943 52.9266 68.906 53.4777C68.6377 53.6243 68.3602 53.7513 68.084 53.8887ZM62.5863 49.793C62.5863 50.7498 62.5863 51.708 62.5863 52.6727C62.5863 52.9214 62.5641 53.157 62.9358 53.1492C64.1964 53.1256 65.4661 53.246 66.7161 53.0418C68.6442 52.7277 69.7124 51.5719 69.7346 49.8558C69.7569 48.1397 68.6979 46.9839 66.7606 46.6187C65.5538 46.3923 64.3273 46.5363 63.1126 46.4878C62.6649 46.4682 62.5641 46.6423 62.5759 47.052C62.6007 47.9643 62.5837 48.8793 62.5837 49.793H62.5863Z" fill="white"/>
<path d="M94.2997 76.1214C94.9778 74.6632 95.631 73.3581 96.1899 72.0138C96.4137 71.4745 96.7737 71.5099 97.1795 71.5361C97.6153 71.5649 98.0957 71.3476 98.3641 72.0073C98.9178 73.3516 99.5775 74.6527 100.259 76.1109L101.277 73.7456C101.363 73.5466 101.447 73.345 101.532 73.1448C102.292 71.3567 102.292 71.3567 104.295 71.574C104.384 71.7887 104.233 71.9523 104.164 72.1225C103.117 74.565 102.061 77.001 101.013 79.4422C100.883 79.755 100.762 79.9998 100.329 79.9972C99.8956 79.9946 99.7686 79.7773 99.6207 79.4618C98.8706 77.8688 98.1088 76.2797 97.3509 74.6907C97.0891 74.76 97.0721 74.9852 96.9936 75.1501C96.2959 76.6017 95.5982 78.0547 94.9202 79.5168C94.7762 79.8244 94.6217 79.9946 94.2461 79.9933C93.8704 79.992 93.7225 79.8297 93.5837 79.5116C92.5191 77.0307 91.4423 74.555 90.3532 72.0845C90.1385 71.5989 90.2537 71.5164 90.7459 71.519C92.3337 71.519 92.3324 71.5086 92.9633 72.9903C93.3808 73.9904 93.8128 74.9865 94.2997 76.1214Z" fill="white"/>
<path d="M78.0222 53.8626C78.0222 51.225 78.0327 48.5861 78.0117 45.9486C78.0117 45.4878 78.1426 45.3635 78.5955 45.3674C81.2553 45.3883 83.9169 45.3883 86.5802 45.3674C87.0279 45.3674 87.1745 45.4787 87.1823 45.946C87.1902 46.4604 86.9493 46.4983 86.5449 46.497C84.3432 46.4839 82.1402 46.5049 79.9385 46.48C79.4516 46.48 79.3089 46.6044 79.3181 47.0979C79.3482 48.9081 79.3521 50.7184 79.3181 52.5274C79.3063 53.0733 79.5026 53.1688 79.9883 53.1636C82.0368 53.1413 84.0866 53.1479 86.1404 53.1636C86.5043 53.1636 86.965 52.9646 86.9768 53.6977C86.9886 54.4307 86.5658 54.2618 86.177 54.2618C84.105 54.2618 82.0329 54.2828 79.9621 54.25C79.4306 54.2409 79.3181 54.4097 79.3246 54.9045C79.3521 56.8235 79.3586 58.7424 79.3246 60.664C79.3141 61.2281 79.4961 61.342 80.0236 61.3355C82.2253 61.3067 84.427 61.3237 86.6299 61.3224C87.0226 61.3224 87.3826 61.2216 87.3734 61.8787C87.3643 62.5567 86.9585 62.4023 86.5985 62.4023C83.9806 62.4023 81.3627 62.3892 78.7447 62.4167C78.195 62.4232 78.0039 62.3198 78.013 61.7151C78.0444 59.0971 78.0222 56.4792 78.0222 53.8626Z" fill="white"/>
<path d="M92.9374 59.6651C93.7935 60.1704 94.5488 60.7359 95.4245 61.0526C97.045 61.6377 98.6079 61.6155 99.9548 60.3982C101.512 58.9897 101.349 56.6362 99.6367 55.4241C98.6641 54.7369 97.5214 54.4162 96.4284 53.9842C95.393 53.5771 94.3485 53.1648 93.5867 52.3061C91.9583 50.4736 92.4898 47.4525 94.6731 46.0558C96.5057 44.8856 98.4272 44.9877 100.391 45.6291C100.618 45.7037 100.838 45.8006 101.06 45.8909C101.714 46.1527 101.951 46.7129 101.747 47.3923C101.647 47.7208 101.485 47.5153 101.354 47.4538C100.71 47.1357 100.073 46.7993 99.3762 46.6082C98.0882 46.2548 96.8277 46.264 95.6496 46.9721C93.6128 48.196 93.5919 50.8794 95.6103 52.1203C96.5266 52.6831 97.5581 52.9816 98.5542 53.3599C99.3906 53.6766 100.221 54.0143 100.925 54.5837C103.2 56.4058 102.952 60.0748 100.447 61.7045C98.4835 62.9821 96.4507 62.8184 94.393 61.9545C94.2529 61.8956 94.122 61.8171 93.9846 61.7503C92.7777 61.16 92.7764 61.16 92.9374 59.6651Z" fill="white"/>
<path d="M107.798 59.6887C108.615 60.1612 109.369 60.728 110.244 61.0474C111.89 61.6469 113.468 61.6194 114.826 60.3719C116.343 58.9805 116.17 56.6414 114.496 55.4437C113.652 54.8389 112.663 54.5392 111.721 54.153C111.097 53.8991 110.463 53.6609 109.86 53.3677C108.449 52.6739 107.553 51.5901 107.485 49.9644C107.414 48.2706 108.153 46.9642 109.549 46.0545C111.367 44.8686 113.306 45.0073 115.267 45.6539C115.453 45.7141 115.629 45.8018 115.811 45.8751C116.613 46.1998 116.779 46.5296 116.614 47.3687C116.538 47.7614 116.352 47.5415 116.202 47.4695C115.344 47.0375 114.485 46.6186 113.525 46.4603C111.65 46.15 109.916 46.9158 109.239 48.3622C108.606 49.7143 108.993 51.1398 110.226 51.988C111.063 52.5626 112.025 52.8637 112.961 53.2119C113.739 53.4904 114.496 53.8273 115.224 54.2198C118.079 55.8063 117.973 60.0146 115.241 61.749C113.284 62.9912 111.276 62.8197 109.242 61.9715C109.082 61.9047 108.929 61.817 108.773 61.7411C107.582 61.1468 107.566 61.1154 107.798 59.6887Z" fill="white"/>
<path d="M8.02919 44.5532C8.52136 45.4132 15.8908 61.7962 16.0453 62.3421C14.8476 62.5148 14.8463 62.5161 14.3842 61.4912L8.37868 48.1437C8.28967 47.9461 8.19412 47.751 8.08679 47.522C7.86557 47.6764 7.82499 47.9146 7.7386 48.111C5.74897 52.5414 3.7624 56.9731 1.77888 61.4061C1.30111 62.4729 1.2998 62.4716 0 62.3565L8.02919 44.5532Z" fill="white"/>
<path d="M27.3594 75.052C28.0335 74.1003 28.7417 73.171 29.3661 72.1866C29.7025 71.6552 30.0912 71.4523 30.6999 71.5217C31.1266 71.5701 31.5625 71.5308 32.1306 71.5308C31.4198 72.5623 30.7732 73.5035 30.124 74.442C29.4224 75.4564 29.4224 75.4538 30.2182 76.4054C31.1489 77.5181 32.0769 78.6307 33.1176 79.8834C32.2013 79.8834 31.4526 79.8834 30.7012 79.8834C30.446 79.8834 30.3373 79.6687 30.1999 79.5077C29.3962 78.5613 28.5977 77.6097 27.7914 76.6646C27.6435 76.4918 27.5296 76.2719 27.2128 76.141C27.2128 77.2222 27.1945 78.2576 27.222 79.2917C27.2338 79.7368 27.1107 79.8938 26.6408 79.8951C25.1289 79.8951 25.1289 79.9174 25.1303 78.4095C25.1303 76.2955 25.1407 74.1815 25.1211 72.0688C25.1211 71.6447 25.2363 71.5178 25.6656 71.5164C27.2128 71.5164 27.2128 71.4929 27.2128 73.0296V74.9904L27.3594 75.052Z" fill="white"/>
<path d="M78.9454 75.6464C78.9454 74.4461 78.9598 73.247 78.9375 72.0467C78.9297 71.654 79.0213 71.5153 79.4402 71.5231C81.1418 71.5467 82.8435 71.5428 84.5451 71.5231C84.9221 71.5231 85.0583 71.654 85.0216 72.0127C85.0026 72.1867 85.0026 72.3623 85.0216 72.5363C85.0661 72.9381 84.8986 73.0717 84.498 73.0599C83.5385 73.0376 82.5778 73.073 81.6183 73.0455C81.1772 73.0311 81.0136 73.1463 81.0201 73.6188C81.0358 74.806 81.0109 74.8073 82.1641 74.8073C82.8841 74.8073 83.604 74.827 84.3239 74.7995C84.7166 74.7838 84.9012 74.8885 84.837 75.3047C84.8173 75.4349 84.8173 75.5673 84.837 75.6974C84.9156 76.2053 84.7232 76.3807 84.1983 76.3519C83.3056 76.31 82.4089 76.3519 81.5149 76.3349C81.1562 76.3257 81.0319 76.4291 81.0227 76.8087C80.9821 78.3415 80.9677 78.3415 82.4717 78.3415C83.1917 78.3415 83.9116 78.3599 84.6302 78.3337C85.0059 78.3206 85.1172 78.4436 85.108 78.8141C85.0753 80.1296 85.2245 79.8612 84.1001 79.8783C82.5516 79.8953 81.0018 79.8704 79.4533 79.89C79.0527 79.89 78.9297 79.7709 78.9297 79.3665C78.9598 78.1334 78.9454 76.8899 78.9454 75.6464Z" fill="white"/>
<path d="M13.196 77.4122C14.039 77.8978 14.7445 78.3284 15.5901 78.4292C15.9134 78.4742 16.242 78.4627 16.5613 78.3952C16.9108 78.314 17.1896 78.1583 17.2459 77.7905C17.3022 77.4226 17.0731 77.1648 16.7564 77.0247C16.0011 76.6896 15.221 76.4095 14.4788 76.0508C13.3007 75.4814 12.7954 74.4356 13.09 73.2654C13.3387 72.281 14.0678 71.8072 14.9762 71.5637C16.2498 71.226 17.4789 71.4734 18.6858 71.9171C18.7915 71.9421 18.884 72.0056 18.9455 72.0951C19.007 72.1847 19.0329 72.2938 19.0183 72.4014C19.0065 72.7941 19.0183 73.1868 19.0183 73.6266C18.4122 73.4329 17.8638 73.2536 17.3166 73.0834C16.8555 72.9438 16.3679 72.9156 15.8938 73.001C15.56 73.0559 15.2393 73.1881 15.1922 73.5782C15.145 73.9408 15.4068 74.1384 15.6935 74.2654C16.4278 74.5913 17.187 74.8662 17.9109 75.2157C18.7368 75.6084 19.3272 76.2276 19.3952 77.2067C19.4895 78.5824 18.6478 79.623 17.17 79.8913C15.9121 80.1204 14.7013 79.9057 13.5455 79.3678C13.3347 79.2696 13.1855 79.1518 13.1947 78.8834C13.2078 78.4305 13.196 77.9763 13.196 77.4122Z" fill="white"/>
<path d="M56.4062 71.5898C56.449 71.574 56.4927 71.5608 56.5371 71.5505C58.5674 71.4196 58.5674 71.4196 59.4103 73.2325C59.8645 74.2143 60.3201 75.196 60.824 76.2838C61.4785 74.8099 62.095 73.4472 62.6696 72.065C62.8372 71.6605 63.0335 71.4694 63.4812 71.5257C63.993 71.5885 64.7417 71.3018 64.9682 71.6369C65.1946 71.972 64.6737 72.5624 64.4642 73.031C63.5035 75.1751 62.5152 77.3087 61.5466 79.4449C61.4052 79.7577 61.2848 79.9947 60.8567 79.9947C60.4287 79.9947 60.2965 79.7905 60.1447 79.4711C58.9666 76.9932 57.7807 74.5219 56.5974 72.0479C56.5385 71.9197 56.4861 71.7796 56.4062 71.5898Z" fill="white"/>
<path d="M37.3867 71.5348H39.7154C39.9889 71.5348 40.0622 71.7678 40.1827 71.938C40.6814 72.6487 41.1736 73.3661 41.7089 74.1396C42.2548 73.3543 42.7757 72.633 43.2653 71.8908C43.3321 71.7686 43.4333 71.6687 43.5564 71.6036C43.6796 71.5384 43.8191 71.5109 43.9577 71.5243C44.6017 71.5479 45.2484 71.5322 46.0324 71.5322C45.145 72.7364 44.3818 73.8687 43.514 74.9172C42.9171 75.6384 42.6645 76.3845 42.743 77.306C42.8019 77.9985 42.743 78.7014 42.76 79.4004C42.7692 79.7617 42.6475 79.886 42.2731 79.8991C40.6788 79.9567 40.578 79.9606 40.7023 78.3597C40.8332 76.6895 40.4261 75.3138 39.286 74.0821C38.6041 73.3399 38.0687 72.4602 37.3867 71.5348Z" fill="white"/>
<path d="M72.6582 75.8008C72.6582 76.9998 72.6386 78.1975 72.6687 79.3952C72.6804 79.8376 72.5286 79.9319 72.115 79.9319C70.5638 79.9319 70.5639 79.9476 70.5639 78.3768C70.5639 76.3074 70.5756 74.2379 70.5547 72.1684C70.5547 71.7207 70.607 71.5139 71.1411 71.5296C72.6582 71.5558 72.6582 71.5296 72.6582 73.0559V75.8008Z" fill="white"/>
</g>
<defs>
<clipPath id="clip0_6_221">
<rect width="117.329" height="80" fill="white"/>
</clipPath>
</defs>
</svg>
