<svg width="17" height="17" viewBox="0 0 17 17" fill="none" xmlns="http://www.w3.org/2000/svg">
<path d="M4.92161 15.9375C4.63828 15.9375 4.39627 15.8372 4.19557 15.6365C3.99488 15.4358 3.89453 15.1937 3.89453 14.9104V2.08958C3.89453 1.80625 3.99488 1.56424 4.19557 1.36354C4.39627 1.16285 4.63828 1.0625 4.92161 1.0625H12.0758C12.3591 1.0625 12.6011 1.16285 12.8018 1.36354C13.0025 1.56424 13.1029 1.80625 13.1029 2.08958V14.9104C13.1029 15.1937 13.0025 15.4358 12.8018 15.6365C12.6011 15.8372 12.3591 15.9375 12.0758 15.9375H4.92161ZM4.69141 13.2281V14.9104C4.69141 14.9694 4.71502 15.0226 4.76224 15.0698C4.80946 15.117 4.86259 15.1406 4.92161 15.1406H12.0758C12.1348 15.1406 12.1879 15.117 12.2352 15.0698C12.2824 15.0226 12.306 14.9694 12.306 14.9104V13.2281H4.69141ZM8.4987 14.6802C8.64036 14.6802 8.75842 14.633 8.85286 14.5385C8.94731 14.4441 8.99453 14.326 8.99453 14.1844C8.99453 14.0427 8.94436 13.9247 8.84401 13.8302C8.74366 13.7358 8.62856 13.6885 8.4987 13.6885C8.35703 13.6885 8.23898 13.7358 8.14453 13.8302C8.05009 13.9247 8.00286 14.0427 8.00286 14.1844C8.00286 14.326 8.05304 14.4441 8.15339 14.5385C8.25373 14.633 8.36884 14.6802 8.4987 14.6802ZM4.69141 12.4312H12.306V3.41771H4.69141V12.4312ZM4.69141 2.62083H12.306V2.08958C12.306 2.03056 12.2824 1.97743 12.2352 1.93021C12.1879 1.88299 12.1348 1.85938 12.0758 1.85938H4.92161C4.86259 1.85938 4.80946 1.88299 4.76224 1.93021C4.71502 1.97743 4.69141 2.03056 4.69141 2.08958V2.62083ZM4.69141 13.2281V15.1406V14.9104V13.2281ZM4.69141 2.62083V1.85938V2.62083Z" fill="white"/>
</svg>
