<svg width="19" height="16" viewBox="0 0 19 16" fill="none" xmlns="http://www.w3.org/2000/svg">
<path d="M18.1261 2.36168C17.5449 2.62501 16.9637 2.78301 16.3297 2.88834C16.5939 2.83567 17.0166 2.30902 17.2279 2.09835C17.4921 1.78236 17.7035 1.4137 17.8091 1.04504C17.8091 0.992371 17.862 0.992371 17.8091 0.939705C17.7563 0.939705 17.7563 0.939705 17.7035 0.939705C17.0166 1.30837 16.3297 1.57169 15.59 1.72969C15.5372 1.72969 15.4843 1.72969 15.4315 1.67703C15.3787 1.62436 15.3258 1.51903 15.2202 1.46636C14.9031 1.20303 14.5861 0.992371 14.2163 0.834374C13.7408 0.623711 13.1596 0.571045 12.6312 0.571045C12.1028 0.623711 11.5745 0.729042 11.1518 0.992371C10.6763 1.2557 10.2536 1.57169 9.93656 1.99302C9.61954 2.41435 9.35536 2.88834 9.19686 3.415C9.09118 3.94166 9.09118 4.41565 9.14402 4.94231C9.14402 5.04764 9.14402 5.04764 9.09119 5.04764C6.18521 4.62631 3.75475 3.573 1.79982 1.36103C1.69414 1.2557 1.69414 1.2557 1.58847 1.36103C0.795933 2.67768 1.21862 4.73164 2.27534 5.73229C2.43385 5.89029 2.53952 5.99562 2.69803 6.10095C2.64519 6.10095 1.90549 6.04829 1.27146 5.73229C1.16578 5.67963 1.16578 5.73229 1.11295 5.78496C1.11295 5.94296 1.11295 6.04829 1.11295 6.20629C1.27146 7.52293 2.16967 8.68158 3.43773 9.15557C3.59624 9.20824 3.75475 9.2609 3.91326 9.31357C3.64908 9.36623 3.33206 9.4189 2.53952 9.36623C2.43385 9.36623 2.38101 9.4189 2.43385 9.47156C3.01504 11.1042 4.33594 11.6309 5.33983 11.8942C5.4455 11.8942 5.60401 11.8942 5.70968 11.9469C5.39266 12.4208 4.28311 12.7895 3.75475 13.0002C2.8037 13.3162 1.74698 13.4742 0.743097 13.3688C0.584589 13.3688 0.531753 13.3688 0.478917 13.3688C0.426081 13.4215 0.478917 13.4215 0.531753 13.4742C0.743097 13.6322 0.954441 13.7375 1.16578 13.8428C1.79982 14.1588 2.48668 14.4748 3.17355 14.6328C6.7664 15.6335 10.8348 14.8961 13.5294 12.2102C15.6428 10.1036 16.3826 7.20693 16.3826 4.31032C16.3826 4.20498 16.5411 4.15232 16.5939 4.09965C17.1223 3.67833 17.5978 3.20433 18.0205 2.62501C18.1261 2.51968 18.1261 2.41435 18.1261 2.36168C18.179 2.30902 18.179 2.30902 18.1261 2.36168Z" fill="white"/>
</svg>
